<svg viewBox="0 0 472.8 472.8" xmlns="http://www.w3.org/2000/svg" xmlns:xlink="http://www.w3.org/1999/xlink" id="Layer_1" overflow="hidden"><path d="M408 87.6 379.2 114.8 342.4 114.8 408 50.8 472.8 117.2 436 117.2Z" fill="#0D9B79"/><path d="M408 50.8 472.8 117.2 436 117.2 408 87.6 379.2 114.8" fill="#23C181"/><path d="M408 168.4 379.2 197.2 342.4 197.2 408 132.4 472.8 197.2 436 197.2Z" fill="#0D9B79"/><g><path d="M408 132.4 472.8 197.2 436 197.2 408 168.4 379.2 197.2" fill="#23C181"/><path d="M350.4 237.2C348.8 301.2 299.2 350 236.8 350 173.6 350 122.4 299.6 122.4 236.4 122.4 175.6 172.8 126.8 228.8 123.6L228.8 1.2C100.8 4.4 0 109.2 0 237.2 0 367.6 106.4 471.6 236.8 471.6 365.6 471.6 471.2 365.2 472.8 237.2L350.4 237.2Z" fill="#23C181"/></g><path d="M0.8 237.2C0.8 367.6 106.4 471.6 236.8 471.6 366.4 471.6 471.2 365.2 472.8 237.2L350.4 237.2C348.8 301.2 299.2 350 236.8 350 173.6 350 122.4 299.6 122.4 236.4" fill="#0D9B79"/><g></g><g></g><g></g><g></g><g></g><g></g><g></g><g></g><g></g><g></g><g></g><g></g><g></g><g></g><g></g></svg>