<svg viewBox="0 0 56 56" xmlns="http://www.w3.org/2000/svg" xmlns:xlink="http://www.w3.org/1999/xlink" id="Capa_1" overflow="hidden"><rect x="1.5" y="20" width="14" height="36" fill="#4B6DAA"/><circle cx="8.5" cy="47" r="4" fill="#D8A852"/><path d="M53.5 26C53.5 23.791 51.709 22 49.5 22L40.5 22 37.5 22 33.898 22 34.886 17.381C35.64 13.857 35.438 9.562 34.99 6.545 34.542 3.528 31.84 0 29.013 0L28.774 0C26.364 0 25.5 2.659 25.5 6 25.5 22.25 17.5 22 17.5 22L15.5 22 15.5 54 30.5 54 40.5 54 44.5 54C46.709 54 48.5 52.209 48.5 50 48.5 47.791 46.709 46 44.5 46L47.5 46C49.709 46 51.5 44.209 51.5 42 51.5 39.791 49.709 38 47.5 38L50.5 38C52.709 38 54.5 36.209 54.5 34 54.5 31.507 52.887 30.558 50.5 30.204 49.337 30.031 47.224 30 46.5 30L49.5 30C51.709 30 53.5 28.209 53.5 26Z" fill="#FBCE9D"/><path d="M52.12 29 39.5 29C38.948 29 38.5 29.447 38.5 30 38.5 30.553 38.948 31 39.5 31L52.956 31C52.299 30.597 51.468 30.347 50.5 30.204 49.337 30.031 47.224 30 46.5 30L49.5 30C50.508 30 51.417 29.615 52.12 29Z" fill="#F7B563"/><path d="M53.12 37 39.5 37C38.948 37 38.5 37.447 38.5 38 38.5 38.553 38.948 39 39.5 39L50.121 39C49.418 38.385 48.508 38 47.5 38L50.5 38C51.508 38 52.417 37.615 53.12 37Z" fill="#F7B563"/><path d="M50.12 45 37.5 45C36.948 45 36.5 45.447 36.5 46 36.5 46.553 36.948 47 37.5 47L47.121 47C46.418 46.385 45.508 46 44.5 46L47.5 46C48.508 46 49.417 45.615 50.12 45Z" fill="#F7B563"/><g></g><g></g><g></g><g></g><g></g><g></g><g></g><g></g><g></g><g></g><g></g><g></g><g></g><g></g><g></g></svg>