<svg viewBox="0 0 58 58" xmlns="http://www.w3.org/2000/svg" xmlns:xlink="http://www.w3.org/1999/xlink" id="Capa_1" overflow="hidden"><path d="M58 17.01 0 17.01 0 3.046C0 1.916 0.916 1 2.046 1L55.954 1C57.084 1 58 1.916 58 3.046L58 17.01Z" fill="#B1B7BC"/><rect x="3" y="17.01" width="52" height="39.99" fill="#E7ECED"/><path d="M38 13.01 20 13.01C17.791 13.01 16 11.219 16 9.01L16 9.01C16 6.801 17.791 5.01 20 5.01L38 5.01C40.209 5.01 42 6.801 42 9.01L42 9.01C42 11.219 40.209 13.01 38 13.01Z" fill="#424A60"/><rect x="3" y="52" width="52" height="5" fill="#57ABC1"/><rect x="15" y="25" width="28" height="14" fill="#FFFFFF"/><g><path d="M19 31 25 31C25.553 31 26 30.553 26 30 26 29.447 25.553 29 25 29L19 29C18.447 29 18 29.447 18 30 18 30.553 18.447 31 19 31Z" fill="#C7CAC7"/><path d="M29 31C29.26 31 29.52 30.89 29.71 30.71 29.89 30.52 30 30.26 30 30 30 29.739 29.89 29.479 29.71 29.29 29.33 28.92 28.66 28.92 28.29 29.29 28.109 29.479 28 29.739 28 30 28 30.27 28.109 30.52 28.29 30.71 28.479 30.89 28.729 31 29 31Z" fill="#C7CAC7"/><path d="M39 33 23 33C22.447 33 22 33.447 22 34 22 34.553 22.447 35 23 35L39 35C39.553 35 40 34.553 40 34 40 33.447 39.553 33 39 33Z" fill="#C7CAC7"/><path d="M18.29 33.29C18.109 33.479 18 33.739 18 34 18 34.26 18.109 34.52 18.29 34.71 18.479 34.89 18.729 35 19 35 19.27 35 19.52 34.89 19.71 34.71 19.89 34.52 20 34.26 20 34 20 33.739 19.89 33.479 19.71 33.29 19.34 32.92 18.67 32.92 18.29 33.29Z" fill="#C7CAC7"/></g><rect x="3" y="17" width="52" height="5" fill="#D7D7E2"/><g></g><g></g><g></g><g></g><g></g><g></g><g></g><g></g><g></g><g></g><g></g><g></g><g></g><g></g><g></g></svg>