<svg viewBox="0 0 496.158 496.158" xmlns="http://www.w3.org/2000/svg" xmlns:xlink="http://www.w3.org/1999/xlink" id="Layer_1" overflow="hidden"><path d="M496.158 248.085C496.158 111.063 385.089 0.003 248.083 0.003 111.07 0.003 0 111.063 0 248.085 0 385.086 111.07 496.155 248.083 496.155 385.089 496.155 496.158 385.086 496.158 248.085Z" fill="#25B7D3"/><path d="M138.216 173.592C138.216 159.677 142.683 145.577 151.619 131.295 160.552 117.013 173.592 105.185 190.73 95.809 207.869 86.436 227.864 81.747 250.715 81.747 271.953 81.747 290.705 85.668 306.965 93.502 323.225 101.34 335.783 111.997 344.648 125.472 353.509 138.951 357.941 153.597 357.941 169.417 357.941 181.869 355.414 192.784 350.36 202.156 345.306 211.532 339.298 219.625 332.342 226.435 325.383 233.247 312.896 244.71 294.879 260.823 289.898 265.365 285.904 269.358 282.904 272.799 279.9 276.242 277.665 279.391 276.202 282.246 274.736 285.103 273.599 287.959 272.796 290.816 271.989 293.671 270.781 298.691 269.171 305.867 266.387 321.103 257.67 328.719 243.024 328.719 235.406 328.719 228.996 326.23 223.798 321.248 218.597 316.269 215.998 308.871 215.998 299.056 215.998 286.751 217.9 276.094 221.711 267.086 225.519 258.076 230.572 250.166 236.872 243.356 243.168 236.544 251.666 228.452 262.36 219.076 271.733 210.874 278.51 204.684 282.685 200.509 286.86 196.334 290.375 191.686 293.232 186.556 296.088 181.43 297.517 175.865 297.517 169.857 297.517 158.139 293.157 148.252 284.443 140.194 275.726 132.14 264.482 128.109 250.715 128.109 234.599 128.109 222.734 132.174 215.119 140.304 207.501 148.434 201.057 160.409 195.783 176.229 190.802 192.784 181.353 201.058 167.438 201.058 159.232 201.058 152.311 198.167 146.674 192.379 141.035 186.593 138.216 180.331 138.216 173.592ZM245.442 414.412C236.505 414.412 228.705 411.517 222.041 405.732 215.374 399.948 212.043 391.855 212.043 381.453 212.043 372.224 215.263 364.462 221.711 358.162 228.155 351.865 236.065 348.714 245.441 348.714 254.67 348.714 262.432 351.865 268.732 358.162 275.028 364.462 278.18 372.224 278.18 381.453 278.18 391.708 274.884 399.765 268.292 405.623 261.7 411.481 254.084 414.412 245.442 414.412Z" fill="#FFFFFF"/><g></g><g></g><g></g><g></g><g></g><g></g><g></g><g></g><g></g><g></g><g></g><g></g><g></g><g></g><g></g></svg>