<svg viewBox="0 0 460 460" xmlns="http://www.w3.org/2000/svg" xmlns:xlink="http://www.w3.org/1999/xlink" id="Layer_1" overflow="hidden"><g><path d="M230 0C102.974 0 0 102.975 0 230 0 357.025 102.974 460 230 460 235.514 460 240.982 459.806 246.399 459.425L453.201 174.266C428.288 74.171 337.806 0 230 0Z" fill="#C2FBFF"/><path d="M246.398 459.412C365.769 451.001 460 351.511 460 230 460 210.781 457.628 192.118 453.187 174.274L381.99 103.077 256.147 206.854 152.37 103.077 72.177 109.27 107.592 144.686 102.177 315.27 246.398 459.412Z" fill="#71E2F0"/><path d="M181.205 362.77 188.705 390.27C203.893 390.27 216.205 377.958 216.205 362.77 216.205 347.582 203.893 335.27 188.705 335.27L181.205 362.77Z" fill="#121149"/><path d="M161.205 362.77C161.205 377.958 173.517 390.27 188.705 390.27L188.705 335.27C173.517 335.27 161.205 347.582 161.205 362.77Z" fill="#273B7A"/><path d="M327.785 362.77 335.285 390.27C350.473 390.27 362.785 377.958 362.785 362.77 362.785 347.582 350.473 335.27 335.285 335.27L327.785 362.77Z" fill="#121149"/><path d="M307.785 362.77C307.785 377.958 320.097 390.27 335.285 390.27L335.285 335.27C320.097 335.27 307.785 347.582 307.785 362.77Z" fill="#273B7A"/><path d="M381.99 103.077 381.99 305.27 266.685 305.27 282.076 113.077 302.083 103.076Z" fill="#D48B07"/><path d="M282.076 113.077 282.076 305.27 182.177 305.27 182.177 103.077 262.083 103.076Z" fill="#FFC61B"/><rect x="262.083" y="103.076" width="40" height="60" fill="#FFFFFF"/><path d="M421.813 315.27 102.177 315.27 102.177 99.27 122.177 99.27 122.177 295.27 142.177 295.27 152.177 285.27 162.177 295.27 421.813 295.27Z" fill="#121149"/><path d="M162.177 295.27 142.177 295.27 142.177 129.27C142.177 118.242 133.205 109.27 122.177 109.27L72.177 109.27 72.177 89.27 122.177 89.27C144.233 89.27 162.177 107.214 162.177 129.27L162.177 295.27Z" fill="#273B7A"/></g><g></g><g></g><g></g><g></g><g></g><g></g><g></g><g></g><g></g><g></g><g></g><g></g><g></g><g></g><g></g></svg>