<svg viewBox="0 0 512 512" xmlns="http://www.w3.org/2000/svg" xmlns:xlink="http://www.w3.org/1999/xlink" id="Capa_1" overflow="hidden"><linearGradient x1="61.4467" y1="491.336" x2="522.057" y2="30.7167" gradientUnits="userSpaceOnUse" id="SVGID_1_" gradientTransform="matrix(1.0667 0 0 -1.0667 3.2667 557.533)"><stop offset="0" stop-color="#FFFFFF"/><stop offset="1" stop-color="#E8EFEE"/></linearGradient><linearGradient x1="460.683" y1="143.278" x2="-4.0069" y2="105.868" gradientUnits="userSpaceOnUse" id="SVGID_2_" gradientTransform="matrix(1.0667 0 0 -1.0667 3.2667 557.533)"><stop offset="0" stop-color="#C2CECE" stop-opacity="0"/><stop offset="0.179" stop-color="#AFBCBC" stop-opacity="0.179"/><stop offset="1" stop-color="#5B6A6A"/></linearGradient><linearGradient x1="461.628" y1="285.998" x2="353.618" y2="394.008" gradientUnits="userSpaceOnUse" id="SVGID_3_" gradientTransform="matrix(1.0667 0 0 -1.0667 3.2667 557.533)"><stop offset="0" stop-color="#C2CECE" stop-opacity="0"/><stop offset="0.179" stop-color="#AFBCBC" stop-opacity="0.179"/><stop offset="1" stop-color="#5B6A6A"/></linearGradient><linearGradient x1="236.938" y1="240.377" x2="236.938" y2="62.4675" gradientUnits="userSpaceOnUse" id="SVGID_4_" gradientTransform="matrix(1.0667 0 0 -1.0667 3.2667 557.533)"><stop offset="0" stop-color="#FFC200"/><stop offset="0.268" stop-color="#FFBB00"/><stop offset="0.659" stop-color="#FFA801"/><stop offset="1" stop-color="#FF9102"/></linearGradient><linearGradient x1="237.879" y1="104.578" x2="237.879" y2="42.8575" gradientUnits="userSpaceOnUse" id="SVGID_5_" gradientTransform="matrix(1.0667 0 0 -1.0667 3.2667 557.533)"><stop offset="0" stop-color="#FFC200"/><stop offset="0.268" stop-color="#FFBB00"/><stop offset="0.659" stop-color="#FFA801"/><stop offset="1" stop-color="#FF9102"/></linearGradient><linearGradient x1="361.864" y1="481.957" x2="429.014" y2="321.966" gradientUnits="userSpaceOnUse" id="SVGID_6_" gradientTransform="matrix(1.0667 0 0 -1.0667 3.2667 557.533)"><stop offset="0" stop-color="#D63305"/><stop offset="0.366" stop-color="#CF3004"/><stop offset="0.899" stop-color="#BC2602"/><stop offset="1" stop-color="#B72401"/></linearGradient><linearGradient x1="125.283" y1="427.493" x2="-211.817" y2="764.583" gradientUnits="userSpaceOnUse" id="SVGID_7_" gradientTransform="matrix(1.0667 0 0 -1.0667 3.2667 557.533)"><stop offset="0" stop-color="#C2CECE" stop-opacity="0"/><stop offset="0.179" stop-color="#AFBCBC" stop-opacity="0.179"/><stop offset="1" stop-color="#5B6A6A"/></linearGradient><path d="M242.757 6.452 0.351 202.324 0.351 238.827 256 238.827 511.649 238.827 511.649 202.324 269.243 6.452C261.518 0.21 250.482 0.21 242.757 6.452Z" fill="#FF9102"/><path d="M469.509 441.27 42.491 441.27C30.855 441.27 21.421 431.836 21.421 420.2L21.421 21.07C21.421 9.434 30.854 0 42.491 0L469.509 0C481.145 0 490.579 9.434 490.579 21.07L490.579 420.201C490.579 431.838 481.146 441.27 469.509 441.27Z" fill="url(#SVGID_1_)"/><path d="M490.579 408.463 490.579 416.665C490.579 430.248 479.555 441.271 465.973 441.271L46.028 441.271C32.445 441.271 21.422 430.247 21.422 416.665L21.422 408.463 490.579 408.463Z" fill="url(#SVGID_2_)"/><g><rect x="120.448" y="66.72" width="271.104" height="15.452" fill="#C2CECE"/><rect x="120.448" y="128.523" width="271.104" height="15.452" fill="#C2CECE"/><rect x="120.448" y="191.733" width="271.104" height="15.452" fill="#C2CECE"/><rect x="120.448" y="254.944" width="271.104" height="15.452" fill="#C2CECE"/></g><path d="M425.262 208.593C404.244 208.593 384.985 201.08 370.008 188.603L364.159 189.63 490.579 316.05 490.579 178.707C474.739 197.002 451.361 208.593 425.262 208.593Z" fill="url(#SVGID_3_)"/><path d="M511.649 202.791 511.649 490.93C511.649 502.561 502.21 512 490.579 512L21.421 512C9.79 512 0.351 502.561 0.351 490.93L0.351 202.791 258.81 406.651 511.649 202.791Z" fill="url(#SVGID_4_)"/><path d="M508.807 501.465 272.034 310.559C264.316 304.336 253.302 304.336 245.584 310.559L5.201 504.375C9.067 509.032 14.896 512 21.421 512L490.578 512C498.373 512 505.163 507.757 508.807 501.465Z" fill="url(#SVGID_5_)"/><circle cx="425.259" cy="129.227" r="86.387" fill="url(#SVGID_6_)"/><path d="M405.781 94.628C405.781 91.826 406.913 89.616 409.176 87.999L425.992 71.83C427.177 70.645 428.632 70.051 430.358 70.051 432.298 70.051 434.049 70.564 435.612 71.587 437.174 72.612 437.957 73.987 437.957 75.71L437.957 182.747C437.957 184.473 437.093 185.847 435.37 186.871 433.644 187.896 431.652 188.407 429.388 188.407 427.016 188.407 424.994 187.896 423.325 186.871 421.652 185.848 420.818 184.473 420.818 182.747L420.818 92.848 415.159 99.963C414.081 101.041 412.896 101.58 411.602 101.58 409.985 101.58 408.611 100.853 407.478 99.398 406.347 97.942 405.781 96.353 405.781 94.628Z" fill="#FFFFFF"/><path d="M27.99 426.77 27.99 27.638C27.99 16.002 37.424 6.568 49.06 6.568L476.078 6.568C480.213 6.568 484.058 7.777 487.312 9.835 483.579 3.932 477.01 0 469.509 0L42.491 0C30.855 0 21.421 9.434 21.421 21.07L21.421 420.201C21.421 427.703 25.353 434.271 31.257 438.005 29.199 434.75 27.99 430.905 27.99 426.77Z" fill="url(#SVGID_7_)"/><g></g><g></g><g></g><g></g><g></g><g></g><g></g><g></g><g></g><g></g><g></g><g></g><g></g><g></g><g></g></svg>