<svg width="28" height="28" xmlns="http://www.w3.org/2000/svg" xmlns:xlink="http://www.w3.org/1999/xlink" overflow="hidden"><defs><clipPath id="clip0"><path d="M885 231 913 231 913 259 885 259Z" fill-rule="evenodd" clip-rule="evenodd"/></clipPath><clipPath id="clip1"><path d="M886 232 912 232 912 258 886 258Z" fill-rule="evenodd" clip-rule="evenodd"/></clipPath><clipPath id="clip2"><path d="M886 232 912 232 912 258 886 258Z" fill-rule="evenodd" clip-rule="evenodd"/></clipPath><clipPath id="clip3"><path d="M886 232 912 232 912 258 886 258Z" fill-rule="evenodd" clip-rule="evenodd"/></clipPath></defs><g clip-path="url(#clip0)" transform="translate(-885 -231)"><g clip-path="url(#clip1)"><g clip-path="url(#clip2)"><g clip-path="url(#clip3)"><path d="M912 245C912 252.18 906.18 258 899 258 891.82 258 886 252.18 886 245 886 237.82 891.82 232 899 232 906.18 232 912 237.82 912 245Z" fill="#32BA7C"/><path d="M895.678 250.864 902.363 257.549C907.899 256.073 912 251.028 912 245 912 244.877 912 244.754 912 244.631L906.751 239.792 895.678 250.864Z" fill="#0AA06E"/><path d="M899.328 247.912C899.902 248.486 899.902 249.47 899.328 250.044L898.139 251.233C897.565 251.808 896.58 251.808 896.006 251.233L890.798 245.984C890.224 245.41 890.224 244.426 890.798 243.852L891.987 242.662C892.562 242.088 893.546 242.088 894.12 242.662L899.328 247.912Z" fill="#FFFFFF"/><path d="M903.88 238.849C904.454 238.274 905.438 238.274 906.013 238.849L907.202 240.038C907.776 240.612 907.776 241.596 907.202 242.17L898.18 251.151C897.606 251.726 896.621 251.726 896.047 251.151L894.858 249.962C894.284 249.388 894.284 248.404 894.858 247.83L903.88 238.849Z" fill="#FFFFFF"/></g></g></g></g></svg>