<svg viewBox="0 0 58 58" xmlns="http://www.w3.org/2000/svg" xmlns:xlink="http://www.w3.org/1999/xlink" id="Capa_1" overflow="hidden"><g><path d="M48 19.929 48 41.07C48 43.793 45.793 46 43.071 46L22 46 12 57 12 46 4.929 46C2.207 46 0 43.793 0 41.071L0 19.93C0 17.207 2.207 15 4.929 15L43.07 15C45.793 15 48 17.207 48 19.929Z" fill="#0391FD"/><path d="M53.071 1 14.929 1C12.207 1 10 3.207 10 5.93L10 15 43.071 15C45.793 15 48 17.207 48 19.93L48 32 53.071 32C55.793 32 58 29.793 58 27.07L58 5.93C58 3.207 55.793 1 53.071 1Z" fill="#0F71D3"/><path d="M25 26.015 11 26.015C10.447 26.015 10 25.567 10 25.015 10 24.463 10.447 24.015 11 24.015L25 24.015C25.553 24.015 26 24.463 26 25.015 26 25.567 25.553 26.015 25 26.015Z" fill="#FFFFFF"/><path d="M38 32.015 11 32.015C10.447 32.015 10 31.567 10 31.015 10 30.463 10.447 30.015 11 30.015L38 30.015C38.553 30.015 39 30.463 39 31.015 39 31.567 38.553 32.015 38 32.015Z" fill="#FFFFFF"/><path d="M38 38.015 11 38.015C10.447 38.015 10 37.567 10 37.015 10 36.463 10.447 36.015 11 36.015L38 36.015C38.553 36.015 39 36.463 39 37.015 39 37.567 38.553 38.015 38 38.015Z" fill="#FFFFFF"/></g><g></g><g></g><g></g><g></g><g></g><g></g><g></g><g></g><g></g><g></g><g></g><g></g><g></g><g></g><g></g></svg>