<svg viewBox="0 0 512 512" xmlns="http://www.w3.org/2000/svg" xmlns:xlink="http://www.w3.org/1999/xlink" id="Capa_1" overflow="hidden"><path d="M469.149 104.457 0.037 104.457C0.037 104.457 0.438 383.876 0.037 399.337 0.034 399.47 0.034 399.603 0.038 399.735 0.441 414.612 6.536 428.533 17.199 438.935 27.887 449.359 41.995 455.101 56.928 455.101L304.71 455.101C306.703 455.101 308.615 454.309 310.024 452.901L474.464 288.461C475.873 287.051 476.664 285.141 476.664 283.147L476.664 111.971C476.664 107.82 473.299 104.457 469.149 104.457Z" fill="#E0E0E2"/><g><path d="M135.96 300.952 166.668 300.952 191.291 223.683 310.518 104.457 282.463 104.457 163.236 223.683Z" fill="#C6C5CA"/><path d="M469.149 104.457 444.1 104.457 444.1 318.824 474.463 288.461C475.872 287.051 476.663 285.141 476.663 283.147L476.663 111.971C476.664 107.82 473.299 104.457 469.149 104.457Z" fill="#C6C5CA"/></g><path d="M342.406 307.108 134.292 307.108C130.142 307.108 126.777 303.744 126.777 299.593 126.777 295.442 130.142 292.078 134.292 292.078L342.406 292.078C346.557 292.078 349.921 295.442 349.921 299.593 349.921 303.744 346.556 307.108 342.406 307.108Z" fill="#3C5156"/><path d="M57.108 339.768C60.349 339.768 63.524 340.049 66.62 340.563L66.62 30.112C66.62 25.961 63.255 22.597 59.105 22.597 26.515 22.597 0 49.111 0 81.702L0 389.495C3.871 361.406 27.956 339.768 57.108 339.768Z" fill="#919191"/><path d="M407.952 97.286 362.821 52.154C361.411 50.745 359.5 49.954 357.507 49.954 355.514 49.954 353.603 50.746 352.193 52.154L185.977 218.369C185.877 218.469 185.788 218.576 185.694 218.682L242.264 273.599 407.951 107.914C410.887 104.978 410.887 100.221 407.952 97.286Z" fill="#FFD039"/><path d="M221.619 253.558 242.264 273.6 407.951 107.915C410.886 104.979 410.886 100.222 407.951 97.287L392.912 82.248 221.619 253.558Z" fill="#FFA304"/><path d="M185.714 218.701C185.049 219.432 184.519 220.292 184.179 221.254L159.581 290.937C158.618 293.666 159.307 296.705 161.353 298.752 162.787 300.186 164.708 300.952 166.667 300.952 167.506 300.952 168.35 300.812 169.168 300.523L238.85 275.925C240.191 275.452 241.335 274.608 242.198 273.534L185.714 218.701Z" fill="#FFC89F"/><path d="M166.668 300.952C167.507 300.952 168.351 300.812 169.169 300.523L238.851 275.925C240.192 275.452 241.336 274.608 242.199 273.534L221.596 253.533 165.727 273.528 159.582 290.935C158.619 293.664 159.308 296.703 161.354 298.75 162.788 300.185 164.708 300.952 166.668 300.952Z" fill="#F7B081"/><path d="M166.668 300.952C167.507 300.952 168.351 300.812 169.169 300.523L213.113 285.011 175.023 247.194 159.583 290.935C158.62 293.664 159.309 296.703 161.355 298.75 162.788 300.185 164.708 300.952 166.668 300.952Z" fill="#3C5156"/><path d="M192.056 264.106 165.727 273.529 159.582 290.936C158.619 293.665 159.308 296.704 161.354 298.751 162.788 300.185 164.709 300.951 166.668 300.951 167.507 300.951 168.351 300.811 169.169 300.522L213.113 285.01 192.056 264.106Z" fill="#304144"/><path d="M432.369 72.868 387.237 27.737C384.301 24.803 379.544 24.803 376.609 27.737L346.899 57.447 402.636 113.23 432.369 83.497C433.778 82.087 434.569 80.177 434.569 78.183 434.569 76.19 433.777 74.279 432.369 72.868Z" fill="#FF6137"/><path d="M382.29 92.868 389.351 99.934 402.641 113.224 432.369 83.496C433.778 82.086 434.569 80.176 434.569 78.182 434.569 76.189 433.777 74.278 432.369 72.868L417.33 57.829 382.29 92.868Z" fill="#E04F32"/><path d="M452.574 30.885 429.219 7.531C424.892 3.204 419.136 0.821 413.016 0.821 406.896 0.821 401.141 3.204 396.813 7.531L381.933 22.411 376.607 27.737 371.192 33.152 427.055 88.809 435.033 80.83 452.573 63.29C456.9 58.963 459.283 53.207 459.283 47.087 459.283 40.967 456.901 35.213 452.574 30.885Z" fill="#546F7A"/><g><path d="M371.285 33.061 371.193 33.153 387.86 49.757Z" fill="#475D63"/><path d="M452.574 30.885 434.144 12.455C437.158 16.461 438.812 21.314 438.812 26.434 438.812 32.622 436.429 38.44 432.102 42.817L414.562 60.552 406.688 68.516 427.058 88.811 435.036 80.832 452.576 63.292C456.903 58.965 459.286 53.209 459.286 47.089 459.286 40.969 456.901 35.213 452.574 30.885Z" fill="#475D63"/></g><path d="M507.361 240.868C504.553 239.704 501.321 240.347 499.171 242.496L243.317 498.35C241.168 500.5 240.525 503.732 241.688 506.54 242.851 509.348 245.592 511.179 248.631 511.179L504.486 511.179C508.636 511.179 512.001 507.815 512.001 503.664L512.001 247.811C512 244.772 510.168 242.03 507.361 240.868ZM368.032 450.391 450.158 368.265 450.158 450.391 368.032 450.391Z" fill="#FFCA10"/><path d="M507.361 240.868C504.553 239.704 501.321 240.347 499.171 242.496L479.435 262.232 479.435 511.18 504.484 511.18C508.634 511.18 511.999 507.816 511.999 503.665L511.999 247.811C512 244.772 510.168 242.03 507.361 240.868Z" fill="#FFA304"/><g><path d="M512 332.253 483.106 332.253C478.955 332.253 475.591 335.617 475.591 339.768 475.591 343.919 478.955 347.283 483.106 347.283L512 347.283 512 332.253Z" fill="#C96E14"/><path d="M512 369.929 483.106 369.929C478.955 369.929 475.591 373.293 475.591 377.444 475.591 381.595 478.955 384.959 483.106 384.959L512 384.959 512 369.929Z" fill="#C96E14"/><path d="M512 407.602 483.106 407.602C478.955 407.602 475.591 410.966 475.591 415.117 475.591 419.268 478.955 422.632 483.106 422.632L512 422.632 512 407.602Z" fill="#C96E14"/><path d="M512 445.278 483.106 445.278C478.955 445.278 475.591 448.643 475.591 452.793 475.591 456.944 478.955 460.308 483.106 460.308L512 460.308 512 445.278Z" fill="#C96E14"/></g><g></g><g></g><g></g><g></g><g></g><g></g><g></g><g></g><g></g><g></g><g></g><g></g><g></g><g></g><g></g></svg>