<svg viewBox="0 0 512.001 512.001" xmlns="http://www.w3.org/2000/svg" xmlns:xlink="http://www.w3.org/1999/xlink" id="Capa_1" overflow="hidden"><linearGradient x1="122.939" y1="31.6691" x2="-31.1507" y2="185.759" gradientUnits="userSpaceOnUse" id="SVGID_1_" gradientTransform="matrix(1.0667 0 0 -1.0667 3.2666 557.534)"><stop offset="0" stop-color="#FFCF95"/><stop offset="0.054" stop-color="#FED19A"/><stop offset="1" stop-color="#E8EFEE"/></linearGradient><linearGradient x1="75.6716" y1="82.2689" x2="83.6716" y2="59.8689" gradientUnits="userSpaceOnUse" id="SVGID_2_" gradientTransform="matrix(1.0667 0 0 -1.0667 3.2666 557.534)"><stop offset="0" stop-color="#C69C6D" stop-opacity="0"/><stop offset="1" stop-color="#754C24"/></linearGradient><linearGradient x1="286.577" y1="208.287" x2="203.087" y2="291.777" gradientUnits="userSpaceOnUse" id="SVGID_3_" gradientTransform="matrix(1.0667 0 0 -1.0667 3.2666 557.534)"><stop offset="0" stop-color="#FF9102"/><stop offset="1" stop-color="#FFC200"/></linearGradient><linearGradient x1="212.036" y1="290.436" x2="243.826" y2="258.646" gradientUnits="userSpaceOnUse" id="SVGID_4_" gradientTransform="matrix(1.0667 0 0 -1.0667 3.2666 557.534)"><stop offset="0" stop-color="#FFCF95"/><stop offset="0.427" stop-color="#FFC954"/><stop offset="1" stop-color="#FFC200"/></linearGradient><linearGradient x1="187.898" y1="306.968" x2="208.518" y2="286.348" gradientUnits="userSpaceOnUse" id="SVGID_5_" gradientTransform="matrix(1.0667 0 0 -1.0667 3.2666 557.534)"><stop offset="0" stop-color="#FFCF95"/><stop offset="0.427" stop-color="#FFC954"/><stop offset="1" stop-color="#FFC200"/></linearGradient><linearGradient x1="432.344" y1="478.1" x2="397.404" y2="443.152" gradientUnits="userSpaceOnUse" id="SVGID_6_" gradientTransform="matrix(1.0667 0 0 -1.0667 3.2666 557.534)"><stop offset="0" stop-color="#D63305"/><stop offset="0.366" stop-color="#CF3004"/><stop offset="0.899" stop-color="#BC2602"/><stop offset="1" stop-color="#B72401"/></linearGradient><linearGradient x1="462.63" y1="417.3" x2="444.26" y2="435.66" gradientUnits="userSpaceOnUse" id="SVGID_7_" gradientTransform="matrix(1.0667 0 0 -1.0667 3.2666 557.534)"><stop offset="0" stop-color="#960000"/><stop offset="0.331" stop-color="#9C0700" stop-opacity="0.669"/><stop offset="0.812" stop-color="#AE1A01" stop-opacity="0.188"/><stop offset="1" stop-color="#B72401" stop-opacity="0"/></linearGradient><linearGradient x1="393.86" y1="439.596" x2="381.1" y2="426.846" gradientUnits="userSpaceOnUse" id="SVGID_8_" gradientTransform="matrix(1.0667 0 0 -1.0667 3.2666 557.534)"><stop offset="0" stop-color="#FFFFFF"/><stop offset="1" stop-color="#E8EFEE"/></linearGradient><linearGradient x1="367.528" y1="413.278" x2="359.218" y2="404.968" gradientUnits="userSpaceOnUse" id="SVGID_9_" gradientTransform="matrix(1.0667 0 0 -1.0667 3.2666 557.534)"><stop offset="0" stop-color="#FFFFFF"/><stop offset="1" stop-color="#E8EFEE"/></linearGradient><linearGradient x1="339.268" y1="385.018" x2="360.748" y2="406.498" gradientUnits="userSpaceOnUse" id="SVGID_10_" gradientTransform="matrix(1.0667 0 0 -1.0667 3.2666 557.534)"><stop offset="0" stop-color="#FFC200" stop-opacity="0"/><stop offset="0.203" stop-color="#FFBB00" stop-opacity="0.203"/><stop offset="0.499" stop-color="#FFA700" stop-opacity="0.499"/><stop offset="0.852" stop-color="#FF8800" stop-opacity="0.852"/><stop offset="1" stop-color="#FF7800"/></linearGradient><linearGradient x1="381.296" y1="427.05" x2="370.356" y2="416.1" gradientUnits="userSpaceOnUse" id="SVGID_11_" gradientTransform="matrix(1.0667 0 0 -1.0667 3.2666 557.534)"><stop offset="0" stop-color="#FFFFFF"/><stop offset="1" stop-color="#E8EFEE"/></linearGradient><linearGradient x1="19.9226" y1="65.6719" x2="-0.1164" y2="45.6419" gradientUnits="userSpaceOnUse" id="SVGID_12_" gradientTransform="matrix(1.0667 0 0 -1.0667 3.2666 557.534)"><stop offset="0" stop-color="#363F3E"/><stop offset="1" stop-color="#303033"/></linearGradient><linearGradient x1="403.984" y1="393.884" x2="428.654" y2="369.204" gradientUnits="userSpaceOnUse" id="SVGID_13_" gradientTransform="matrix(1.0667 0 0 -1.0667 3.2666 557.534)"><stop offset="0" stop-color="#C2CECE" stop-opacity="0"/><stop offset="0.179" stop-color="#AFBCBC" stop-opacity="0.179"/><stop offset="1" stop-color="#5B6A6A"/></linearGradient><linearGradient x1="346.558" y1="451.308" x2="371.228" y2="426.638" gradientUnits="userSpaceOnUse" id="SVGID_14_" gradientTransform="matrix(1.0667 0 0 -1.0667 3.2666 557.534)"><stop offset="0" stop-color="#C2CECE" stop-opacity="0"/><stop offset="0.55" stop-color="#C2CECE"/><stop offset="1" stop-color="#C2CECE" stop-opacity="0"/></linearGradient><path d="M374.995 512 6.009 512C3.672 512 1.776 510.106 1.776 507.767L1.776 502.355C1.776 497.028 6.094 492.71 11.421 492.71L374.993 492.71C380.32 492.71 384.638 497.028 384.638 502.355L384.638 502.355C384.639 507.681 380.32 512 374.995 512Z" fill="#C2CECE"/><path d="M120.736 391.264 70.42 340.947 53.556 357.811C48.452 362.915 44.615 369.145 42.356 376.001L0.337 503.464C-1.332 508.526 3.474 513.333 8.536 511.663L135.998 469.645C142.853 467.385 149.084 463.549 154.188 458.445L171.052 441.581 120.736 391.264Z" fill="url(#SVGID_1_)"/><path d="M154.189 435.721C149.085 440.825 142.855 444.662 135.999 446.921L8.537 488.939C7.338 489.334 6.157 489.356 5.07 489.109L0.337 503.464C-1.332 508.526 3.474 513.333 8.536 511.663L135.998 469.645C142.853 467.385 149.084 463.549 154.188 458.445L171.052 441.581 159.69 430.219 154.189 435.721Z" fill="url(#SVGID_2_)"/><path d="M150.963 461.671C155.525 457.109 157.807 451.121 157.807 445.132 157.807 439.169 155.525 433.181 150.963 428.619L150.47 428.126C144.975 422.631 137.431 420.452 130.301 421.567 128.447 421.866 126.723 421.204 125.531 420.012 124.338 418.819 123.69 417.109 123.976 415.269 123.963 415.256 123.976 415.243 123.976 415.243 124.054 414.777 124.105 414.31 124.157 413.843 124.17 413.597 124.195 413.363 124.209 413.118 124.247 412.612 124.261 412.107 124.261 411.588 124.261 405.625 121.979 399.637 117.417 395.075L116.924 394.582C116.639 394.297 116.341 394.025 116.043 393.752 115.797 393.531 115.537 393.299 115.278 393.091 114.876 392.741 114.461 392.43 114.033 392.132 113.812 391.963 113.567 391.795 113.333 391.639 112.996 391.405 112.633 391.173 112.271 390.965 111.921 390.771 111.584 390.59 111.247 390.408 110.794 390.162 110.339 389.942 109.886 389.747 109.511 389.578 109.121 389.423 108.746 389.28 108.396 389.137 108.033 389.008 107.657 388.892 106.736 388.593 105.79 388.348 104.831 388.167 104.378 388.076 103.937 387.998 103.496 387.946 103.043 387.881 102.588 387.843 102.148 387.817 101.695 387.779 101.254 387.752 100.787 387.752 100.334 387.739 99.893 387.739 99.452 387.765 98.531 387.803 97.65 387.881 96.755 388.024 94.901 388.323 93.177 387.661 91.985 386.469 90.792 385.276 90.131 383.553 90.43 381.699 90.624 380.494 90.715 379.263 90.715 378.044 90.715 372.081 88.433 366.093 83.871 361.531L83.378 361.038C74.253 351.913 59.451 351.913 50.326 361.038L334.625 76.738 435.259 177.372 150.963 461.671Z" fill="url(#SVGID_3_)"/><path d="M401.717 143.828 125.532 420.013C124.339 418.82 123.691 417.11 123.977 415.27 123.964 415.257 123.977 415.244 123.977 415.244 124.055 414.778 124.106 414.311 124.158 413.845 124.171 413.599 124.196 413.365 124.21 413.12 124.248 412.614 124.262 412.109 124.262 411.59 124.262 405.627 121.98 399.639 117.418 395.077L116.925 394.584C116.64 394.299 116.342 394.027 116.044 393.754 115.798 393.533 115.538 393.301 115.279 393.093 114.877 392.743 114.462 392.432 114.034 392.134 113.8 391.953 113.568 391.797 113.334 391.641 112.997 391.407 112.634 391.175 112.272 390.967 111.935 390.786 111.598 390.578 111.248 390.41 110.795 390.164 110.34 389.944 109.887 389.749 109.512 389.58 109.122 389.425 108.747 389.282 108.397 389.139 108.034 389.01 107.658 388.894 106.737 388.595 105.791 388.35 104.832 388.169 104.404 388.078 103.951 388.013 103.497 387.948 103.056 387.896 102.616 387.845 102.149 387.819 101.708 387.767 101.255 387.754 100.788 387.754 100.335 387.741 99.88 387.754 99.453 387.767 98.532 387.805 97.651 387.883 96.756 388.026 94.902 388.325 93.178 387.663 91.986 386.471L368.171 110.286 401.717 143.828Z" fill="url(#SVGID_4_)"/><path d="M334.628 76.739 50.329 361.038C59.454 351.913 74.256 351.913 83.381 361.038L83.874 361.531C88.436 366.093 90.718 372.081 90.718 378.044 90.718 379.262 90.627 380.494 90.433 381.699 90.135 383.553 90.796 385.277 91.988 386.469L368.173 110.284 334.628 76.739Z" fill="url(#SVGID_5_)"/><path d="M469.671 142.965 369.035 42.33 400.558 10.807C414.967-3.602 438.327-3.602 452.735 10.807L501.194 59.266C515.603 73.675 515.603 97.035 501.194 111.443L469.671 142.965Z" fill="url(#SVGID_6_)"/><path d="M436.309 109.603 469.671 142.965 501.195 111.441C515.602 97.034 515.602 73.674 501.195 59.265L493.92 51.99 436.309 109.603Z" fill="url(#SVGID_7_)"/><path d="M474.17 138.466 373.534 37.831 334.621 76.744 435.257 177.379Z" fill="url(#SVGID_8_)"/><path d="M448.228 164.409 347.592 63.773 334.621 76.744 435.257 177.379Z" fill="url(#SVGID_9_)"/><path d="M418.631 194.004 317.995 93.369 334.621 76.744 435.257 177.379Z" fill="url(#SVGID_10_)"/><path d="M461.199 151.437 360.563 50.801 347.592 63.773 448.228 164.409Z" fill="url(#SVGID_11_)"/><path d="M10.981 471.179 0.339 503.464C-1.33 508.526 3.476 513.333 8.538 511.663L40.823 501.021 10.981 471.179Z" fill="url(#SVGID_12_)"/><path d="M474.17 138.466 440.808 105.104 401.895 144.017 435.257 177.379Z" fill="url(#SVGID_13_)"/><path d="M423.15 87.447 389.788 54.084 350.875 92.997 384.237 126.36Z" fill="url(#SVGID_14_)"/><g></g><g></g><g></g><g></g><g></g><g></g><g></g><g></g><g></g><g></g><g></g><g></g><g></g><g></g><g></g></svg>