<svg viewBox="0 0 512 512" xmlns="http://www.w3.org/2000/svg" xmlns:xlink="http://www.w3.org/1999/xlink" id="Layer_1" overflow="hidden"><circle cx="256" cy="256" r="256" fill="#E21B1B"/><path d="M510.28 285.304 367.912 142.936 150.248 368.608 291.176 509.536C406.352 493.696 497.056 401.288 510.28 285.304Z" fill="#C40606"/><g><path d="M354.376 371.536C349.256 371.536 344.144 369.584 340.232 365.68L146.408 171.848C138.592 164.032 138.592 151.376 146.408 143.568 154.224 135.76 166.88 135.752 174.688 143.568L368.52 337.4C376.336 345.216 376.336 357.872 368.52 365.68 364.608 369.584 359.496 371.536 354.376 371.536Z" fill="#FFFFFF"/><path d="M160.544 371.536C155.424 371.536 150.312 369.584 146.4 365.68 138.584 357.864 138.584 345.208 146.4 337.4L340.232 143.568C348.048 135.752 360.704 135.752 368.512 143.568 376.32 151.384 376.328 164.04 368.512 171.848L174.688 365.68C170.784 369.584 165.664 371.536 160.544 371.536Z" fill="#FFFFFF"/></g><g></g><g></g><g></g><g></g><g></g><g></g><g></g><g></g><g></g><g></g><g></g><g></g><g></g><g></g><g></g></svg>