<svg viewBox="0 0 501.944 501.944" xmlns="http://www.w3.org/2000/svg" xmlns:xlink="http://www.w3.org/1999/xlink" id="Layer_1" overflow="hidden"><path d="M377.275 343.903 343.838 377.339 309.357 342.858 342.793 309.421Z" fill="#334A5E"/><path d="M486.989 487.054 486.989 487.054C467.136 506.907 434.744 506.907 414.891 487.054L316.671 388.834 388.769 316.736 486.989 414.956C506.842 434.809 506.842 467.201 486.989 487.054Z" fill="#FFD15C"/><path d="M337.569 57.601C260.247-18.677 135.904-19.721 58.581 57.601-18.742 134.923-19.786 258.221 57.536 335.544 133.814 412.866 259.201 412.866 336.524 336.589 413.847 260.312 413.847 134.923 337.569 57.601Z" fill="#40596B"/><path d="M306.222 306.286C245.618 365.845 147.398 365.845 87.838 305.241 27.234 245.682 28.279 147.461 88.883 87.902 149.487 28.343 247.707 28.343 307.267 88.947 366.826 148.507 366.826 246.727 306.222 306.286Z" fill="#F2F2F2"/><path d="M275.92 275.984C232.034 318.825 160.981 318.825 118.14 275.984 74.254 232.098 75.299 162.09 118.14 118.204 162.026 75.363 233.079 75.363 275.92 118.204 319.806 162.09 319.806 232.099 275.92 275.984Z" fill="#84DBFF"/><path d="M251.887 251.952C221.585 282.254 172.475 282.254 142.173 251.952 111.871 221.65 111.871 172.54 142.173 142.238 172.475 111.936 221.585 111.936 251.887 142.238 282.189 172.539 282.189 221.65 251.887 251.952Z" fill="#54C0EB"/><g><ellipse cx="135.138" cy="159.887" rx="16.718" ry="16.718" fill="#FFFFFF"/><ellipse cx="159.992" cy="175.957" rx="8.359" ry="8.359" fill="#FFFFFF"/></g><path d="M388.769 316.735 315.626 387.788 345.928 418.09 418.026 345.992Z" fill="#F8B64C"/><g></g><g></g><g></g><g></g><g></g><g></g><g></g><g></g><g></g><g></g><g></g><g></g><g></g><g></g><g></g></svg>