<svg viewBox="0 0 496.158 496.158" xmlns="http://www.w3.org/2000/svg" xmlns:xlink="http://www.w3.org/1999/xlink" id="Layer_1" overflow="hidden"><path d="M0 248.085C0 111.063 111.069 0.003 248.075 0.003 385.088 0.003 496.158 111.064 496.158 248.085 496.158 385.087 385.088 496.155 248.075 496.155 111.069 496.155 0 385.087 0 248.085Z" fill="#32BEA6"/><path d="M383.546 206.55 289.08 206.55 289.08 112.612C289.08 108.636 285.856 105.413 281.879 105.413L213.75 105.413C209.773 105.413 206.55 108.637 206.55 112.612L206.55 206.55 112.613 206.55C108.636 206.55 105.413 209.775 105.413 213.75L105.413 282.937C105.413 286.913 108.637 290.136 112.613 290.136L206.55 290.136 206.55 383.546C206.55 387.522 209.774 390.745 213.75 390.745L281.879 390.745C285.857 390.745 289.08 387.521 289.08 383.546L289.08 290.136 383.546 290.136C387.522 290.136 390.745 286.912 390.745 282.937L390.745 213.75C390.745 209.774 387.521 206.55 383.546 206.55Z" fill="#FFFFFF"/><g></g><g></g><g></g><g></g><g></g><g></g><g></g><g></g><g></g><g></g><g></g><g></g><g></g><g></g><g></g></svg>