<svg width="512" height="512" viewBox="0 0 512 512" xmlns="http://www.w3.org/2000/svg" xmlns:xlink="http://www.w3.org/1999/xlink" id="Capa_1" overflow="hidden"><path d="M391 300 376 300 376 330 421 330 421 195 391 195Z" fill="#3B4A51"/><path d="M356 180 356 210 451 210 451 180C443.279 180 378.829 180 356 180Z" fill="#465A61"/><path d="M379.64 422.45 372.36 451.55 271 426.21 271 437 241 437 241 426.21 139.64 451.55 132.36 422.45 241 395.29 241 345 271 345 271 395.29Z" fill="#465A61"/><path d="M379.64 422.45 372.36 451.55 271 426.21 271 437 256 437 256 345 271 345 271 395.29Z" fill="#3B4A51"/><path d="M136 512C111.187 512 91 491.813 91 467 91 442.187 111.187 422 136 422 160.813 422 181 442.187 181 467 181 491.813 160.813 512 136 512Z" fill="#596C76"/><circle cx="136" cy="467" r="15" fill="#E2E2E7"/><path d="M256 422C231.19 422 211 442.19 211 467 211 491.81 231.19 512 256 512 280.81 512 301 491.81 301 467 301 442.19 280.81 422 256 422Z" fill="#596C76"/><path d="M301 467C301 491.81 280.81 512 256 512L256 422C280.81 422 301 442.19 301 467Z" fill="#465A61"/><circle cx="256" cy="467" r="15" fill="#E2E2E7"/><path d="M271 467C271 475.27 264.27 482 256 482L256 452C264.27 452 271 458.73 271 467Z" fill="#D3D3D8"/><path d="M376 512C351.187 512 331 491.813 331 467 331 442.187 351.187 422 376 422 400.813 422 421 442.187 421 467 421 491.813 400.813 512 376 512Z" fill="#465A61"/><circle cx="376" cy="467" r="15" fill="#D3D3D8"/><path d="M91 195 91 330 136 330 136 300 121 300 121 195Z" fill="#465A61"/><path d="M61 180 61 210 156 210 156 180C126.32 180 91.457 180 61 180Z" fill="#596C76"/><path d="M383.5 83.28 360.91 286.66 151.09 286.66 128.5 83.28C123.54 38.72 158.51-2.84217e-14 203.04-2.84217e-14L308.96-2.84217e-14C353.8-2.84217e-14 388.42 39.03 383.5 83.28Z" fill="#FF7D43"/><path d="M383.5 83.28 360.91 286.66 256 286.66 256-5.68434e-14 308.96-5.68434e-14C353.8-5.68434e-14 388.42 39.03 383.5 83.28Z" fill="#FF641A"/><path d="M346 270 166 270C141.19 270 121 290.19 121 315L121 360 391 360 391 315C391 290.19 370.81 270 346 270Z" fill="#FF641A"/><path d="M391 315 391 360 256 360 256 270 346 270C370.81 270 391 290.19 391 315Z" fill="#F03800"/><path d="M301 105C301 121.76 291.78 137.03 276.93 144.84 273.38 146.71 271 151.52 271 156.82L271 181 241 181 241 156.82C241 143.25 246.6 130.94 256 123 258.13 121.19 260.46 119.61 262.96 118.29 267.92 115.68 271 110.59 271 105 271 96.73 264.27 90 256 90 247.73 90 241 96.73 241 105L211 105C211 80.19 231.19 60 256 60 280.81 60 301 80.19 301 105Z" fill="#ECECF1"/><path d="M301 105C301 121.76 291.78 137.03 276.93 144.84 273.38 146.71 271 151.52 271 156.82L271 181 256 181 256 123C258.13 121.19 260.46 119.61 262.96 118.29 267.92 115.68 271 110.59 271 105 271 96.73 264.27 90 256 90L256 60C280.81 60 301 80.19 301 105Z" fill="#E2E2E7"/><path d="M241 210 271 210 271 240 241 240Z" fill="#ECECF1"/><path d="M256 210 271 210 271 240 256 240Z" fill="#E2E2E7"/></svg>